<svg id="Capa_1" data-name="Capa 1" xmlns="http://www.w3.org/2000/svg" viewBox="0 0 136.06 136.06"><defs><style>.cls-1{fill:#26358c;stroke:#26358c;stroke-miterlimit:10;stroke-width:0.5px;}</style></defs><path class="cls-1" d="M93,65.08a163.53,163.53,0,0,0-2.74-20.51,156.72,156.72,0,0,0-9.13-29.66h.42a2.83,2.83,0,0,0,2.14-.84,3,3,0,0,0,.9-2.14V3.59a3,3,0,0,0-3-3H53.53a3,3,0,0,0-3,3l.06,8.17a3,3,0,0,0,2.93,3h.62A172.61,172.61,0,0,0,46,40.87c-.63,3-1.22,6.51-1.22,6.54-.89,5.54-1.28,10.22-1.57,14.47-1.23,17.63-1.58,39.43-1,63.06.3,4.56,2.56,8.23,5.9,9.55a7.89,7.89,0,0,0,3.67.48l32.6.49a9,9,0,0,0,4.33-1.25c4.34-2.58,4.67-8,4.68-8.56A459.24,459.24,0,0,0,93,65.08Zm-1.14,60.49c0,.53-.31,5.21-4,7.4a7.69,7.69,0,0,1-3.61,1l-32.64-.48a6.71,6.71,0,0,1-3.08-.4c-2.81-1.1-4.72-4.28-5-8.27-.57-23.55-.22-45.3,1-62.88.3-4.22.69-8.86,1.56-14.34,0,0,.54-3.29,1.21-6.48a172,172,0,0,1,8.52-26.82l.39-1-2.72,0a1.55,1.55,0,0,1-1.51-1.54L52,3.6a1.5,1.5,0,0,1,.45-1.08,1.48,1.48,0,0,1,1.09-.47H81.65a1.54,1.54,0,0,1,1.52,1.54v8.35a1.54,1.54,0,0,1-.45,1.1,1.47,1.47,0,0,1-1.11.43l-2.67-.05.43,1a154.07,154.07,0,0,1,9.5,30.41A161.32,161.32,0,0,1,91.58,65.2,457.82,457.82,0,0,1,91.89,125.57Z"/><path class="cls-1" d="M84.84,77.69A3.34,3.34,0,0,0,82.09,77,78.27,78.27,0,0,1,63.65,78.1,78.37,78.37,0,0,1,54.51,77a3.31,3.31,0,0,0-2.74.71,3.38,3.38,0,0,0-1.21,2.6v43.62a3.37,3.37,0,0,0,3.37,3.37H82.68A3.37,3.37,0,0,0,86,123.91V80.29A3.41,3.41,0,0,0,84.84,77.69Zm-.25,46.22a1.92,1.92,0,0,1-1.91,1.93H53.93A1.92,1.92,0,0,1,52,123.91V80.29a1.88,1.88,0,0,1,.69-1.48,1.86,1.86,0,0,1,1.21-.44l.34,0a74.87,74.87,0,0,0,9.31,1.13A77.53,77.53,0,0,0,82.35,78.4a1.9,1.9,0,0,1,2.24,1.89Z"/><path class="cls-1" d="M84.59,80.29v43.62a1.92,1.92,0,0,1-1.91,1.93H53.93A1.92,1.92,0,0,1,52,123.91V80.29a1.88,1.88,0,0,1,.69-1.48,1.86,1.86,0,0,1,1.21-.44l.34,0a74.87,74.87,0,0,0,9.31,1.13A77.53,77.53,0,0,0,82.35,78.4a1.9,1.9,0,0,1,2.24,1.89Z"/></svg>