<svg id="Capa_1" data-name="Capa 1" xmlns="http://www.w3.org/2000/svg" viewBox="0 0 136.06 136.06"><defs><style>.cls-1{fill:#26358c;}</style></defs><path class="cls-1" d="M131.93,77.62c2.72-5.15,4.52-8.55,3.56-12.09-.71-2.67-2.38-4-4.14-5.44a17.82,17.82,0,0,1-4.25-4.44c-2-3.12-2.85-7-2.45-11.71,1.67-1.7,2.73-3.21,2.62-5.15-.16-2.7-2.58-4.19-4.91-5.63s-4.69-2.87-5.58-5.52c-.67-2-.39-4.35.83-7l.77-1.68-1.85.13C106,19.84,97.73,23,92,28.5A29.6,29.6,0,0,0,86.85,35a35.42,35.42,0,0,1-7.06,8.66c-4.09,3.73-9.69,8.84-17.05,8.84h0c-4.84,0-8.38-2.15-12.47-4.62a39.63,39.63,0,0,1-9.81-8.46,55,55,0,0,0-4.82-4.9c-5.93-5.22-13.72-8.67-23.14-10.26L11,24.05l.23,1.5c1.09,7.31.16,12.72-2.78,16.06a17.1,17.1,0,0,1-2.1,2C4.93,44.7,3.5,45.88,3,48.17a7.38,7.38,0,0,0,.72,5,18.15,18.15,0,0,1,1.43,5.36,16.81,16.81,0,0,1-.8,8.17,11.74,11.74,0,0,1-2.25,3.63A5.56,5.56,0,0,0,.32,74c-.17,4.34,4.6,7.61,6.27,8.61a13.7,13.7,0,0,1,.69,6.09,9.17,9.17,0,0,1-1.21,3.59,6.32,6.32,0,0,0-1,4.06A11.28,11.28,0,0,0,7.82,102a20.48,20.48,0,0,1,2.59,4.2,18.49,18.49,0,0,1,1.22,9.44l-.16,1.45,1.44-.25a43.88,43.88,0,0,0,17.82-7.13A39.62,39.62,0,0,0,38.87,102c1.92-2.23,4.31-5,8.1-8.87,8.36-8.5,12.22-12.3,16.4-13.16,8.5-1.78,16.51,3.85,21.31,7.21a41.56,41.56,0,0,1,9.25,8.92,35.16,35.16,0,0,0,9,8.49,41.6,41.6,0,0,0,19.63,6.26l1.58.11-.44-1.51c-1-3.39-.86-6.18.34-8.28a9.85,9.85,0,0,1,3.42-3.3c1.48-1,3-2,3.23-4.08.21-1.84-.83-3-1.74-4a5.43,5.43,0,0,1-1.73-3.17c-.16-1.37.37-2.21,1.7-4.13A47.21,47.21,0,0,0,131.93,77.62Zm-6.85,9.18a7.6,7.6,0,0,0,2.28,4.39c.86,1,1.29,1.49,1.2,2.32s-.9,1.56-2.29,2.51a12,12,0,0,0-4.09,4,11.85,11.85,0,0,0-.92,8.44,38.89,38.89,0,0,1-17.1-5.78,33.23,33.23,0,0,1-8.52-8,43.62,43.62,0,0,0-9.7-9.33c-4.75-3.33-13.6-9.52-23-7.56-5,1-9.45,5.56-17.51,13.78-3.85,3.91-6.26,6.71-8.2,9-2.75,3.19-4.4,5.11-7.73,7.42a41.46,41.46,0,0,1-15.55,6.52,19.86,19.86,0,0,0-1.51-9.1,22,22,0,0,0-2.85-4.64C8.42,99.18,7.52,98,7.29,96.1A4.21,4.21,0,0,1,8,93.33,11.49,11.49,0,0,0,9.46,89a15.23,15.23,0,0,0-.26-5.11,15.84,15.84,0,0,0,5.33.89,19.58,19.58,0,0,0,5.92-1l-.68-2.09c-2,.65-7,1.86-11.73-.78-.58-.33-5.67-3.31-5.52-6.83a3.51,3.51,0,0,1,1.21-2.35,13.54,13.54,0,0,0,2.62-4.25,19,19,0,0,0,.94-9.21,20.17,20.17,0,0,0-1.58-5.95c-.59-1.44-.94-2.32-.62-3.67.38-1.58,1.32-2.35,2.63-3.43a19.92,19.92,0,0,0,2.35-2.19c3.17-3.6,4.34-9.09,3.5-16.33,8.36,1.62,15.28,4.81,20.59,9.48a53.77,53.77,0,0,1,4.64,4.72A41.83,41.83,0,0,0,49.11,49.8c4.19,2.53,8.14,4.92,13.6,4.94h0c8.19,0,14.16-5.44,18.52-9.42a38,38,0,0,0,7.45-9.11,27.64,27.64,0,0,1,4.74-6.12c5.09-4.83,12.31-7.74,21.47-8.67a10.67,10.67,0,0,0-.23,6.92c1.15,3.4,4,5.15,6.51,6.7,2.34,1.44,3.78,2.39,3.87,3.88s-1.48,3-3.85,5.28A25.23,25.23,0,0,1,111.08,50l.63,2.1a27.34,27.34,0,0,0,10.64-5.94,19.39,19.39,0,0,0,2.9,10.7A19.82,19.82,0,0,0,130,61.79c1.67,1.35,2.87,2.32,3.4,4.3.73,2.72-.82,5.65-3.39,10.51a43.34,43.34,0,0,1-2.82,4.57C125.81,83.13,124.83,84.55,125.08,86.8Z"/><path class="cls-1" d="M103.94,84.51h-.26a22.38,22.38,0,0,1-9.83-2.16,19.55,19.55,0,0,1-5.17-3.75,41.69,41.69,0,0,0-3.24-2.76C81,72.46,76.91,71,73,69.6a30.68,30.68,0,0,0-8.49-1.9h0a33.43,33.43,0,0,0-7.66,3.84c-5.06,3.27-8.11,5.24-11.17,8.92-.44.52-.85,1.05-1.27,1.59a28.79,28.79,0,0,1-6,6.13,26.92,26.92,0,0,1-6.67,3.58l-.76-2.07A24.55,24.55,0,0,0,37,86.41a27,27,0,0,0,5.58-5.71c.43-.56.86-1.1,1.31-1.64,3.27-3.94,6.43-6,11.65-9.35A42.16,42.16,0,0,1,60.33,67c-.28-.08-.58-.17-.89-.28L33.1,66.47l0-2.2,21.43.22a28.88,28.88,0,0,1-4.35-3.23,18.72,18.72,0,0,0-5.85-3.78A25,25,0,0,0,30.12,56.4l-.41-2.16a27.23,27.23,0,0,1,15.46,1.2,21.13,21.13,0,0,1,6.46,4.15,23.9,23.9,0,0,0,6.6,4.32c.58.25,1.1.46,1.58.63l7.2.08h0a34.47,34.47,0,0,0,9.6-4.3c2.24-1.38,3.77-2.53,5.25-3.64a38.73,38.73,0,0,1,8.35-5.1,52.64,52.64,0,0,1,10.5-3.5l.47,2.14a51,51,0,0,0-10.06,3.36,37.1,37.1,0,0,0-7.94,4.85c-1.45,1.09-3.09,2.33-5.41,3.76a46.14,46.14,0,0,1-4.55,2.49l27.51.28,0,2.19-29.08-.29c.63.19,1.31.41,2,.67a44.16,44.16,0,0,1,13.09,6.56c1.45,1.1,2.48,2.06,3.4,2.9a17.43,17.43,0,0,0,4.64,3.38,20.08,20.08,0,0,0,9.1,1.95Z"/></svg>