<svg id="Capa_1" data-name="Capa 1" xmlns="http://www.w3.org/2000/svg" viewBox="0 0 136.06 136.06"><defs><style>.cls-1{fill:#26358c;}</style></defs><path class="cls-1" d="M47.44,19.61c-9.36,0-16.72,3.74-16.72,8.52s7.36,8.51,16.72,8.51,16.74-3.74,16.74-8.51S56.83,19.61,47.44,19.61Zm0,14.92c-8.73,0-14.6-3.32-14.6-6.4s5.87-6.41,14.6-6.41S62.07,25,62.07,28.13,56.19,34.53,47.44,34.53Z"/><path class="cls-1" d="M.78,28.19a11.87,11.87,0,0,0-.07,1.19V28.19Z"/><path class="cls-1" d="M125.9,56.24a3.83,3.83,0,0,1,0-4.21L134.4,39a5.92,5.92,0,0,0-.19-6.72l-6-8.18a3.77,3.77,0,0,1-.09-4.37l3-4.46A5.91,5.91,0,0,0,126.22,6H49.29C22.87,6,2,15.66.78,28.19a11.87,11.87,0,0,0-.07,1.19v83.91l.41.31A76.61,76.61,0,0,0,44.7,130q1.68.06,3.3.06c24.37,0,41.8-12.09,48.61-17.75l30.71-.39a5.9,5.9,0,0,0,5.18-8.6l-7.17-14a3.78,3.78,0,0,1,.49-4.16l8-9.51a6,6,0,0,0,.38-7.11ZM95.17,110.77C88.2,116.54,70,129,44.81,127.89a74.36,74.36,0,0,1-42-15.64V36.33c6,9.62,24.26,16.42,46.46,16.42,22,0,40.15-6.7,46.28-16.21Zm.45-80v.08C94,41.89,73.85,50.64,49.29,50.64c-25.62,0-46.46-9.53-46.46-21.26S23.67,8.11,49.29,8.11s46.43,9.56,46.43,21.27A7.67,7.67,0,0,1,95.62,30.73Z"/><rect class="cls-1" x="-7.98" y="83.34" width="47.99" height="2.11" transform="translate(-68.45 100.09) rotate(-89.78)"/></svg>