<svg id="Capa_1" data-name="Capa 1" xmlns="http://www.w3.org/2000/svg" viewBox="0 0 136.06 136.06"><defs><style>.cls-1{fill:#26358c;}</style></defs><path class="cls-1" d="M34.23,112.24a24.19,24.19,0,0,0,3.4-.24C36.5,112.1,35.35,112.18,34.23,112.24ZM20.67,31.64c1.77-.85,3.54-1.61,5.31-2.31A26.6,26.6,0,0,0,20.67,31.64Z"/><path class="cls-1" d="M134.79,46.23a9.42,9.42,0,0,0-8.24-5.81,11.83,11.83,0,0,0,1.4-7.5c-.61-4-3.36-8.32-7.46-9-4.83-.83-9,3.89-10.73,6.78A14.61,14.61,0,0,0,108,35.75a7.94,7.94,0,0,1-1.9,4.38c-1.26,1.41-2.6,2-5.75,3.23a46.05,46.05,0,0,1-11.44,2.89,35.38,35.38,0,0,0-6.94-11.37C70.47,22.61,48.09,20.58,26,29.33c0,0,0,0,0,0-1.77.7-3.54,1.46-5.31,2.31a.27.27,0,0,0-.1.06l-.14.06-.12.08C8.76,38.46.71,53.12.71,70.14c0,23.21,15,42.1,33.4,42.1h.12c1.12-.06,2.27-.14,3.4-.24.24,0,.48,0,.72-.08a94.27,94.27,0,0,0,22.79-5c11.59-4.08,20-7,26.07-15.51C93.83,82.17,93.81,71.34,93,64l-.66.23-.64-1.91,1-.35h0c-.18-1.33-.38-2.49-.56-3.48a62,62,0,0,0-2.54-10.24,48.41,48.41,0,0,0,11.48-3c3.15-1.25,4.88-1.94,6.51-3.76A10,10,0,0,0,110,36.15a12.72,12.72,0,0,1,1.54-4.42c1.36-2.29,4.91-6.46,8.67-5.83,3.12.52,5.32,4.16,5.81,7.32a10.35,10.35,0,0,1-2.1,7.66l-1.49,1.94,2.42-.34A7.55,7.55,0,0,1,132.91,47a7,7,0,0,1-2.2,8,7.27,7.27,0,0,1-4.7.95A12.12,12.12,0,0,1,120,54.1a11.44,11.44,0,0,0-5-1.67c-2.46-.16-3.93.68-6.57,2.2-1.29.75-2.88,1.68-5.11,2.8a89.81,89.81,0,0,1-10.61,4.49c.1.65.18,1.32.28,2h0a89.27,89.27,0,0,0,11.24-4.73c2.27-1.14,3.9-2.09,5.21-2.85,2.51-1.45,3.55-2,5.42-1.93A9.38,9.38,0,0,1,119,55.88a14.12,14.12,0,0,0,7,2,9.23,9.23,0,0,0,5.93-1.32A9.1,9.1,0,0,0,134.79,46.23ZM37.79,110a2.23,2.23,0,0,1-.34,0,20.61,20.61,0,0,1-3.34.24h-.06c-17.28,0-31.32-18-31.32-40.09,0-16.31,7.68-30.39,18.66-36.61l0,0A25.34,25.34,0,0,1,26.7,31.2l.1,0a23.85,23.85,0,0,1,7.31-1.11c17.3,0,31.38,18,31.38,40.07C65.49,90.66,53.36,107.61,37.79,110Z"/><path class="cls-1" d="M36.23,57.21c-6.47,0-11.72,6.63-11.72,14.78s5.25,14.78,11.72,14.78S48,80.16,48,72,42.71,57.21,36.23,57.21Zm0,27.55c-5.35,0-9.71-5.73-9.71-12.77s4.36-12.77,9.71-12.77S46,65,46,72,41.58,84.76,36.23,84.76Z"/><path class="cls-1" d="M20.43,31.76l-.12.08,0,0Z"/><path class="cls-1" d="M26.7,31.2c-1.77.7-3.54,1.46-5.29,2.31A25.34,25.34,0,0,1,26.7,31.2Z"/><path class="cls-1" d="M37.45,110a20.61,20.61,0,0,1-3.34.24C35.21,110.17,36.34,110.09,37.45,110Z"/><path class="cls-1" d="M93,63.94h0l-.66.23-.64-1.91,1-.35C92.78,62.57,92.86,63.24,93,63.94Z"/><path class="cls-1" d="M93,63.94h0l-.66.23-.64-1.91,1-.35C92.78,62.57,92.86,63.24,93,63.94Z"/></svg>