<svg id="Capa_1" data-name="Capa 1" xmlns="http://www.w3.org/2000/svg" viewBox="0 0 136.06 136.06"><defs><style>.cls-1{fill:#26358c;stroke:#26358c;stroke-miterlimit:10;stroke-width:0.5px;}</style></defs><path class="cls-1" d="M124.47,62.2a18.78,18.78,0,0,0-6.65-12,18.22,18.22,0,0,0-9.37-3.82l-14.82-.16V41.4a14,14,0,0,0-8.44-25.28,13.76,13.76,0,0,0-2.58.22v-.22a14.08,14.08,0,0,0-26.95-5.68,14.07,14.07,0,0,0-27.24,4.91c0,.15,0,.29,0,.44a12.88,12.88,0,0,0-3.1-.36,14.06,14.06,0,0,0-7.26,26.09l0,85.51a8.49,8.49,0,0,0,2.1,4.91,8.94,8.94,0,0,0,6.52,2.83h58.8A8.56,8.56,0,0,0,90,133.26a9.19,9.19,0,0,0,3.59-6.83v-9.7l16.91-.17.24,0a16.71,16.71,0,0,0,14-16.49Zm-105-20a13.84,13.84,0,0,0,5.92,1.32,14.1,14.1,0,0,0,13.09-8.95h3.38V55.7H19.42Zm72.87,84.19a7.76,7.76,0,0,1-3,5.75,7.17,7.17,0,0,1-3.8,1.26H26.79a7.58,7.58,0,0,1-5.6-2.39A7.33,7.33,0,0,1,19.42,127v-8.23H92.29Zm0-9H19.42V57H41.81v2.5c.14,3,2.15,5.59,4.66,6.05a4.14,4.14,0,0,0,.87.08,5.86,5.86,0,0,0,3.59-1.34A7,7,0,0,0,53.51,59V57H92.29Zm0-61.69H53.51v-20l3.7-3.69V47.32l0,.15a6.57,6.57,0,0,0,12.92-.13l.39-12.71,1.3-.08a14.13,14.13,0,0,0,13.35,9.68,13.87,13.87,0,0,0,7.1-2Zm1.34,4.58,10.14.46A9.24,9.24,0,0,1,110.31,64a8.86,8.86,0,0,1,1.94,4.87V95.53a8.29,8.29,0,0,1-1.94,5,8.91,8.91,0,0,1-7.14,2.74l-9.54-.14Zm26.75,49a15.88,15.88,0,0,1-9.7,6l-17.05.17v-11l9.48.14a5.47,5.47,0,0,0,.72,0,9.93,9.93,0,0,0,7.49-3.24,9.59,9.59,0,0,0,2.27-5.78V68.81a10.31,10.31,0,0,0-2.23-5.66,10.75,10.75,0,0,0-7.53-3.76l-10.2-.45V47.61l14.74.17A16.54,16.54,0,0,1,117,51.3a17.34,17.34,0,0,1,6.16,11l.33,37.75A15.87,15.87,0,0,1,120.38,109.26Z"/><rect class="cls-1" x="31.39" y="70.96" width="1.34" height="33.36"/><rect class="cls-1" x="46.63" y="70.96" width="1.34" height="33.36"/><rect class="cls-1" x="61.87" y="70.96" width="1.34" height="33.36"/><rect class="cls-1" x="77.1" y="70.96" width="1.34" height="33.36"/></svg>