<svg id="Capa_1" data-name="Capa 1" xmlns="http://www.w3.org/2000/svg" viewBox="0 0 136.06 136.06"><defs><style>.cls-1{fill:#26358c;}</style></defs><path class="cls-1" d="M132.67,29.26a11,11,0,0,0-8.66-3,11.89,11.89,0,0,0-13.33-13.51c-.67-5-3.59-9.11-7.63-10.46s-8.25.18-12.34,4.09C84.88,12,85,20.51,85.73,25.8a34.14,34.14,0,0,0-17.68-3.54c-8.48.8-14.49,5.65-21.45,11.22-7.45,6-21.36,17.18-22.48,32.75a35.7,35.7,0,0,0,4.49,19.26c-5.26-1-14.86-1.8-22.08,4.26C2,93.61.06,97.38.87,100.88c1,4.31,5.93,7.31,12.34,7.76a10.8,10.8,0,0,0,3.59,11.8,10.33,10.33,0,0,0,8,1.8,12.23,12.23,0,0,0,4.57,9.83,11.11,11.11,0,0,0,6.69,2.11,13.19,13.19,0,0,0,2.56-.23,14.72,14.72,0,0,0,9.82-7c.61-1.1,1.05-2.32,1.55-9.17.32-4.44.43-8.15.47-10.8a33.2,33.2,0,0,0,14.72,3.77,27.63,27.63,0,0,0,3.32-.22c9.43-1.35,15.71-8,28.28-21.41a157.85,157.85,0,0,0,11-12.38,22.5,22.5,0,0,0,4.53-10,29.49,29.49,0,0,0-2.51-16.16l10.46-.28c6-.16,7-.18,8.48-.89,4.41-2.18,6.49-7.61,6.59-11.84C135.4,36.21,135.45,32.16,132.67,29.26Zm-86.4,87.93c-.42,5.49-1.36,7.12-1.87,7.88a10.16,10.16,0,0,1-6.6,4.44,7.64,7.64,0,0,1-5.74-1c-2.33-1.71-3.28-5.43-2.38-9L31,114.39l-4.58,2.55a6.64,6.64,0,0,1-7-.09c-2.29-1.7-3.19-5.83-.9-9.2l2.65-3.86-4.67.36c-6.19.36-10.69-1.63-11.3-4.3s3.11-5.77,4.21-6.65c6.77-5.35,16-3.78,19.12-3.09A66.91,66.91,0,0,0,36,98.59a64.32,64.32,0,0,0,10.1,7.9A57.51,57.51,0,0,1,46.27,117.19Zm84.61-79.94a10.05,10.05,0,0,1-4.27,8.12c-1.12.73-2.43,1.19-8.56,1.21-2.68,0-6.25-.07-10.47-.4a50.08,50.08,0,0,0-7-9.29,52.85,52.85,0,0,0-8.8-7.54c0-.05,0-.05,0-.05-.32-.22-.63-.49-.94-.72-.72-2.78-3-13.28,3-18.89,1.3-1.3,4.71-4.13,7.85-3.09,2.87.94,4.85,4.71,4.71,8.93l-.13,3.41,3.18-1.26a7.52,7.52,0,0,1,9.43,10.41l-2.34,4.62,4.94-1.43c3.23-1,6.46-.5,8,1.07S130.89,36,130.88,37.25Z"/></svg>